# xmcd CD database file
#
# Track frame offsets:
#	150
#	11535
#	26772
#	46368
#	67974
#	95448
#	110528
#	118011
#	152924
#	172812
#	191070
#
# Disc length: 2718 seconds
#
# Revision: 0
# Processed by: cddbd v1.5.1PL2 Copyright (c) Steve Scherf et al.
# Submitted via: CDex 1.51
#
DISCID=8a0a9c0b
DTITLE=矢堀孝一 - TV Jazz 昭和40年代
DYEAR=1900
DGENRE=Jazz
TTITLE0=11PMのテーマ
TTITLE1=サスケのテーマ
TTITLE2=今日もどこかでデビルマン
TTITLE3=ひみつのアッコちゃん
TTITLE4=力石のテーマ
TTITLE5=ど根性でヤンス
TTITLE6=天才バカボン
TTITLE7=ルパン三世主題歌?
TTITLE8=SCAT THEME
TTITLE9=妖怪人間ベム
TTITLE10=ウルトラQ
EXTD=
EXTT0=
EXTT1=
EXTT2=
EXTT3=
EXTT4=
EXTT5=
EXTT6=
EXTT7=
EXTT8=
EXTT9=
EXTT10=
PLAYORDER=
